<?xml version="1.0" encoding="UTF-8"?>
<svg width="150px" height="85px" viewBox="0 0 150 85" version="1.1" xmlns="http://www.w3.org/2000/svg" xmlns:xlink="http://www.w3.org/1999/xlink">
    <title>KurzGedanke</title>
    <defs>
        <path d="M17.0588541,0 L17.0588541,34.0257406 L35.3514103,34.0257406 L63.79279,0 L81.8489949,0 L81.8489949,0.00130003212 L82.0243104,0 L133.006078,0 C137.648694,0 141.640694,1.65494089 144.984676,4.9622226 C148.328658,8.27080434 150,12.2866036 150,17.0135203 L150,24.3379013 L132.887902,24.3379013 L132.887902,21.0293195 C132.887902,18.6671612 132.809984,17.40613 132.651551,17.2488261 C132.494416,17.0915223 131.23604,17.0135203 128.875123,17.0135203 L85.9189133,17.0135203 C83.557997,17.0135203 82.3191003,17.0915223 82.2009246,17.2488261 C82.0886577,17.3982648 82.0303036,18.5438174 82.0247489,20.6832546 L82.0243104,64.033082 C82.0243104,66.3965404 82.0827489,67.6562715 82.2009246,67.8135754 C82.3131915,67.9630141 83.4369091,68.042056 85.5731908,68.0495866 L128.875123,68.0501812 C131.23604,68.0501812 132.494416,67.9708793 132.651551,67.8135754 C132.809984,67.6562715 132.887902,66.3965404 132.887902,64.033082 L132.887902,53.2818164 L114.005766,53.2818164 L114.005766,36.1512931 L150,36.1512931 L150,68.0501812 C150,72.775798 148.328658,76.7928972 144.984676,80.1001789 C142.016408,83.0370243 138.537557,84.6699197 134.546308,85 L63.7408446,85 L35.3514103,51.0379609 L17.0588541,51.0379609 L17.0588541,85 L-2.95563503e-15,85 L-2.95563503e-15,0 L17.0588541,0 Z M65.030388,25.4624291 L50.6934705,42.5331508 L65.030388,59.6025725 L65.030388,25.4624291 Z" id="path-1"></path>
    </defs>
    <g id="Page-1" stroke="none" stroke-width="1" fill="none" fill-rule="evenodd">
        <g id="Desktop-HD" transform="translate(-645.000000, -27.000000)">
            <g id="KurzGedanke" transform="translate(645.000000, 27.000000)">
                <path d="M81.8731771,85 L63.8233792,85 L35.3920915,51.0005196 L17.1060261,51.0005196 L17.1060261,85 L0,85 L0,0 L17.1060261,0 L17.1060261,34.0007794 L35.3920915,34.0007794 L63.8233792,0 L81.8731771,0 L81.8731771,0.00129907842 L82.0484305,0 L133.012108,0 C137.653076,0 141.64366,1.65372683 144.986456,4.95858232 C148.329251,8.2647369 150,12.2775901 150,17.0010393 L150,24.3200471 L132.893974,24.3200471 L132.893974,21.0138925 C132.893974,18.653467 132.816083,17.3933609 132.657706,17.2361725 C132.500627,17.078984 131.242698,17.0010393 128.882619,17.0010393 L85.9416514,17.0010393 C83.5815729,17.0010393 82.3431158,17.078984 82.224982,17.2361725 C82.1068483,17.3933609 82.0484305,18.653467 82.0484305,21.0138925 L82.0484305,63.9861075 C82.0484305,66.3478321 82.1068483,67.6066391 82.224982,67.7638275 C82.3431158,67.921016 83.5815729,68.0002598 85.9416514,68.0002598 L128.882619,68.0002598 C131.242698,68.0002598 132.500627,67.921016 132.657706,67.7638275 C132.816083,67.6066391 132.893974,66.3478321 132.893974,63.9861075 L132.893974,53.242729 L114.018538,53.242729 L114.018538,36.1247727 L150,36.1247727 L150,68.0002598 C150,72.7224099 148.329251,76.7365622 144.986456,80.0414177 C141.64366,83.3475723 137.653076,85 133.012108,85 L82.0484305,85 L81.8731771,84.9987009 L81.8731771,85 Z M50.7287078,42.5019486 L65.0605381,59.5588483 L65.0605381,25.4437499 L50.7287078,42.5019486 L50.7287078,42.5019486 Z" id="Fill-1"></path>
                <g id="Group-9">
                    <mask id="mask-2" fill="white">
                        <use xlink:href="#path-1"></use>
                    </mask>
                    <g id="Clip-3"></g>
                    <polygon id="Fill-2" fill="#56B146" mask="url(#mask-2)" points="-0.0532439873 14.1781503 150 14.1781503 150 0.00130003212 -0.0532439873 0.00130003212"></polygon>
                    <polygon id="Fill-4" fill="#D7C02E" mask="url(#mask-2)" points="-0.0532439873 28.3563006 150 28.3563006 150 14.1781503 -0.0532439873 14.1781503"></polygon>
                    <polygon id="Fill-5" fill="#D0672D" mask="url(#mask-2)" points="-0.0532439873 42.5331508 150 42.5331508 150 28.3563006 -0.0532439873 28.3563006"></polygon>
                    <polygon id="Fill-6" fill="#CC2433" mask="url(#mask-2)" points="-0.0532439873 56.7100011 150 56.7100011 150 42.5331508 -0.0532439873 42.5331508"></polygon>
                    <polygon id="Fill-7" fill="#A3458A" mask="url(#mask-2)" points="-0.0532439873 70.8868513 150 70.8868513 150 56.7100011 -0.0532439873 56.7100011"></polygon>
                    <polygon id="Fill-8" fill="#36468A" mask="url(#mask-2)" points="-0.0532439873 85.0637016 150 85.0637016 150 70.8868513 -0.0532439873 70.8868513"></polygon>
                </g>
            </g>
        </g>
    </g>
</svg>