<?xml version="1.0" standalone="no"?>
<!DOCTYPE svg PUBLIC "-//W3C//DTD SVG 20010904//EN"
 "http://www.w3.org/TR/2001/REC-SVG-20010904/DTD/svg10.dtd">
<svg version="1.0" xmlns="http://www.w3.org/2000/svg"
 width="1024.000000pt" height="1024.000000pt" viewBox="0 0 1024.000000 1024.000000"
 preserveAspectRatio="xMidYMid meet">
<metadata>
Created by potrace 1.14, written by Peter Selinger 2001-2017
</metadata>
<g transform="translate(0.000000,1024.000000) scale(0.100000,-0.100000)"
fill="#000000" stroke="none">
<path d="M330 5125 l0 -2715 545 0 545 0 0 1085 0 1085 584 0 584 0 33 -38
c19 -21 52 -60 74 -87 22 -27 67 -81 100 -120 33 -39 78 -93 100 -119 22 -27
45 -54 50 -60 6 -6 42 -49 80 -96 38 -47 72 -87 75 -90 3 -3 59 -70 125 -150
66 -80 132 -158 146 -175 15 -16 68 -79 118 -140 51 -60 100 -119 109 -130 20
-24 484 -578 671 -803 l136 -162 2285 0 c1341 0 2302 4 2325 10 22 5 51 11 65
13 216 39 479 215 637 427 78 104 160 283 178 389 2 14 9 55 14 91 7 41 11
449 11 1127 l0 1063 -1150 0 -1150 0 0 -547 0 -548 603 0 602 0 -1 -440 c0
-242 -3 -452 -7 -466 -6 -24 -13 -28 -54 -31 -27 -3 -749 -4 -1605 -4 -1263 1
-1559 3 -1570 14 -11 11 -13 307 -13 1576 -1 860 1 1582 3 1605 3 29 10 45 25
53 15 8 439 11 1531 11 1686 -1 1661 0 1677 -19 8 -9 12 -86 13 -227 0 -116 4
-214 8 -217 3 -3 248 -5 545 -5 l538 0 0 295 c0 162 -3 318 -7 345 -33 221
-135 420 -301 588 -164 165 -332 256 -577 313 -19 5 -1068 9 -2330 11 l-2295
2 -120 -146 c-66 -80 -125 -151 -130 -157 -6 -6 -57 -67 -115 -136 -57 -69
-109 -130 -115 -136 -5 -7 -25 -30 -44 -53 -18 -23 -72 -88 -120 -145 -47 -56
-102 -122 -121 -146 -19 -24 -42 -51 -50 -59 -9 -9 -47 -54 -85 -101 -38 -47
-72 -87 -75 -90 -4 -3 -62 -72 -130 -155 -69 -82 -129 -155 -135 -161 -16 -18
-84 -99 -179 -214 -48 -58 -95 -114 -104 -125 -9 -11 -73 -87 -142 -170 -68
-82 -132 -157 -141 -165 -14 -13 -94 -15 -595 -14 l-579 0 -3 1087 -2 1087
-545 0 -545 0 0 -2715z m4158 -2 l0 -1087 -27 30 c-14 16 -110 128 -211 249
-101 121 -236 281 -298 355 -63 74 -131 155 -152 180 -21 25 -81 96 -133 159
l-96 113 227 272 c125 149 229 273 232 276 3 3 53 61 110 130 57 69 107 127
110 130 3 3 57 67 120 143 63 75 115 137 116 137 1 0 2 -489 2 -1087z"/>
</g>
</svg>
